<svg xmlns="http://www.w3.org/2000/svg" viewBox="0 0 24 24" fill="white">
  <path d="M12 2a10 10 0 100 20 10 10 0 000-20zm7.93 9h-3.17a15.6 15.6 0 00-1.43-5.02A8.03 8.03 0 0119.93 11zM12 4.07c.9 1.3 1.62 3.1 2.02 4.93H9.98c.4-1.83 1.12-3.63 2.02-4.93zM4.07 13h3.17c.34 1.83 1.03 3.56 1.96 4.98A8.03 8.03 0 014.07 13zm3.17-2H4.07a8.03 8.03 0 014.86-5.02A15.6 15.6 0 007.24 11zM12 19.93c-.9-1.3-1.62-3.1-2.02-4.93h4.04c-.4 1.83-1.12 3.63-2.02 4.93zM16.76 13h3.17a8.03 8.03 0 01-4.86 5.02A15.6 15.6 0 0016.76 13z"></path>
</svg>
